<svg
  xmlns="http://www.w3.org/2000/svg"
  viewBox="0 0 24 24"
  fill="currentColor"
  width="24"
  height="24"
>
  <path d="M12 10.5c0 1.2-1 2.2-2.2 2.2s-2.2-1-2.2-2.2 1-2.2 2.2-2.2 2.2 1 2.2 2.2zm1.5-.3v1H22v-1h-8.5zM10.8 13.2l6.2 6.2.3-.3-6.2-6.2-.3.3zM10 24h1v-10h-1v10zM8 10.3H2.5v1H8v-1zM11.7 0H10v7.3h1.7V0zM9 9.3l.5-.7L4 5.1l-.1-.1-.5.7 5.2 3.6.4.1zM18.7 3.5l-.6-.6-6.2 7.2.6.6 6.2-7.2zM4 18.7l.7.6 5.4-6.1-.7-.6-5.4 6.1zM13.5 12l7 2 .2-.5-7-2-.2.5zM5.2 12.5l.2.8 3.9-1.4-.2-.8-3.9 1.4zM13.2 9.3l6.2-2.2-.2-.8-6.2 2.2.2.8zM9.3 8l.4-.2-3-6-.1-.1-.4.2 3 6 .1.1z"/>
</svg>
